HIERARCHY
ROOT SpineBase
{
  OFFSET 0.000000 0.000000 0.000000
  CHANNELS 6 Xposition Yposition Zposition Zrotation Xrotation Yrotation
  JOINT SpineMid
  {
    OFFSET 0.000000 33.475530 0.000000
    CHANNELS 3 Zrotation Xrotation Yrotation
    JOINT SpineShoulder
    {
      OFFSET -0.187896 24.849884 -0.880430
      CHANNELS 3 Zrotation Xrotation Yrotation
      JOINT Neck
      {
        OFFSET -0.124771 8.219075 -0.653695
        CHANNELS 3 Zrotation Xrotation Yrotation
        JOINT Head
        {
          OFFSET -0.232954 12.978085 6.552464
          CHANNELS 3 Zrotation Xrotation Yrotation
          End Site
          {
            OFFSET 0 0 0
          }
        }
      }
      JOINT ShoulderLeft
      {
        OFFSET -15.112197 -7.801921 -6.170529
        CHANNELS 3 Zrotation Xrotation Yrotation
        JOINT ElbowLeft
        {
          OFFSET -6.063176 -25.208642 2.996421
          CHANNELS 3 Zrotation Xrotation Yrotation
          JOINT WristLeft
          {
            OFFSET 1.755485 -20.646795 8.848100
            CHANNELS 3 Zrotation Xrotation Yrotation
            JOINT HandLeft
            {
              OFFSET -0.285537 -6.781708 2.436122
              CHANNELS 3 Zrotation Xrotation Yrotation
              JOINT HandTipLeft
              {
                OFFSET 1.123999 -3.696320 -1.058318
                CHANNELS 3 Zrotation Xrotation Yrotation
                End Site
                {
                  OFFSET 0 0 0
                }
              }
              JOINT ThumbLeft
              {
                OFFSET 1.264977 -0.739831 0.288312
                CHANNELS 3 Zrotation Xrotation Yrotation
                End Site
                {
                  OFFSET 0 0 0
                }
              }
            }
          }
        }
      }
      JOINT ShoulderRight
      {
        OFFSET 15.395120 -6.315631 -6.331094
        CHANNELS 3 Zrotation Xrotation Yrotation
        JOINT ElbowRight
        {
          OFFSET 7.057492 -26.070547 5.425654
          CHANNELS 3 Zrotation Xrotation Yrotation
          JOINT WristRight
          {
            OFFSET -0.122342 -21.482683 7.199876
            CHANNELS 3 Zrotation Xrotation Yrotation
            JOINT HandRight
            {
              OFFSET -0.431842 0.487281 0.662143
              CHANNELS 3 Zrotation Xrotation Yrotation
              JOINT HandTipRight
              {
                OFFSET 0.449695 -6.825397 0.807346
                CHANNELS 3 Zrotation Xrotation Yrotation
                End Site
                {
                  OFFSET 0 0 0
                }
              }
              JOINT ThumbRight
              {
                OFFSET 0.652941 -1.134344 -0.606803
                CHANNELS 3 Zrotation Xrotation Yrotation
                End Site
                {
                  OFFSET 0 0 0
                }
              }
            }
          }
        }
      }
    }
  }
  JOINT HipLeft
  {
    OFFSET -7.712804 1.187042 -3.398856
    CHANNELS 3 Zrotation Xrotation Yrotation
    JOINT KneeLeft
    {
      OFFSET 0.616200 -30.307972 -2.103098
      CHANNELS 3 Zrotation Xrotation Yrotation
      JOINT AnkleLeft
      {
        OFFSET -0.644791 -31.524084 -1.313889
        CHANNELS 3 Zrotation Xrotation Yrotation
        JOINT FootLeft
        {
          OFFSET -0.283641 -4.665031 -7.035260
          CHANNELS 3 Zrotation Xrotation Yrotation
          End Site
          {
            OFFSET 0 0 0
          }
        }
      }
    }
  }
  JOINT HipRight
  {
    OFFSET 6.571390 1.539580 -3.764757
    CHANNELS 3 Zrotation Xrotation Yrotation
    JOINT KneeRight
    {
      OFFSET 2.398411 -31.495441 -2.970401
      CHANNELS 3 Zrotation Xrotation Yrotation
      JOINT AnkleRight
      {
        OFFSET 1.479203 -31.218933 -0.967401
        CHANNELS 3 Zrotation Xrotation Yrotation
        JOINT FootRight
        {
          OFFSET -0.737136 -2.519455 -12.913740
          CHANNELS 3 Zrotation Xrotation Yrotation
          End Site
          {
            OFFSET 0 0 0
          }
        }
      }
    }
  }
}
MOTION
Frames: 6
Frame Time: 0.033333
41.269113 68.621628 261.864957 -0.000000 0.000000 1.467356 -0.000000 -0.000000 -1.467356 -0.000000 0.000000 0.000000 -0.000000 0.000000 0.000000 0.000000 0.000000 0.000000 -0.000000 0.000000 0.000000 -0.000000 0.000000 0.000000 -0.000000 0.000000 0.000000 -0.000000 0.000000 0.000000 0.000000 0.000000 0.000000 0.000000 0.000000 0.000000 -0.000000 0.000000 0.000000 -0.000000 0.000000 0.000000 -0.000000 0.000000 0.000000 -0.000000 0.000000 0.000000 0.000000 0.000000 0.000000 0.000000 0.000000 0.000000 -0.000000 -0.000000 -1.467356 -0.000000 0.000000 0.000000 -0.000000 0.000000 0.000000 0.000000 0.000000 0.000000 -0.000000 -0.000000 -1.467356 -0.000000 0.000000 0.000000 -0.000000 0.000000 0.000000 0.000000 0.000000 0.000000
41.208128 68.620002 261.914595 0.034041 -0.033495 1.441746 -0.033187 0.034341 -1.441726 -0.000000 0.000000 0.000000 -0.000000 0.000000 0.000000 0.000000 0.000000 0.000000 -0.000000 0.000000 0.000000 -0.000000 0.000000 0.000000 -0.555442 1.675086 -0.263268 0.563372 -1.672436 0.279611 0.000000 0.000000 0.000000 0.000000 0.000000 0.000000 -0.000000 0.000000 0.000000 -0.000000 0.000000 0.000000 12.888703 5.444297 -11.445319 -11.660815 -7.753436 10.036998 0.000000 0.000000 0.000000 0.000000 0.000000 0.000000 -0.033187 0.034341 -1.441726 -0.000000 0.000000 0.000000 -0.751129 3.223889 0.918484 0.000000 0.000000 0.000000 -0.033187 0.034341 -1.441726 -0.000000 0.000000 0.000000 -0.000000 0.000000 0.000000 0.000000 0.000000 0.000000
41.160506 68.618527 261.950988 0.070007 -0.057640 1.428308 -0.068548 0.059367 -1.428237 -0.000000 0.000000 0.000000 -0.000000 0.000000 0.000000 0.000000 0.000000 0.000000 -0.000000 0.000000 0.000000 -0.000000 0.000000 0.000000 -0.983572 3.123318 -0.462407 0.752860 -4.572753 0.132411 0.000000 0.000000 0.000000 0.000000 0.000000 0.000000 0.925715 0.045923 0.204290 -0.925873 -0.042617 -0.205005 42.237144 3.861882 -40.200845 -32.362348 -27.498075 30.645380 0.000000 0.000000 0.000000 0.000000 0.000000 0.000000 -0.068548 0.059367 -1.428237 -0.000000 0.000000 0.000000 -1.360614 6.355236 1.605095 0.000000 0.000000 0.000000 -0.068548 0.059367 -1.428237 -0.000000 0.000000 0.000000 -0.000000 0.000000 0.000000 0.000000 0.000000 0.000000
41.126247 68.617202 261.974138 0.107898 -0.072431 1.427063 -0.106060 0.075096 -1.426926 -0.000000 0.000000 0.000000 -0.000000 0.000000 0.000000 0.000000 0.000000 0.000000 -0.000000 0.000000 0.000000 -0.000000 0.000000 0.000000 -1.282078 4.327489 -0.602302 1.075461 -6.413890 0.115703 0.000000 0.000000 0.000000 0.000000 0.000000 0.000000 1.188464 0.030248 0.254519 -1.188586 -0.024962 -0.255091 65.135393 -16.757672 -67.018470 -48.809714 -50.843536 53.050544 0.000000 0.000000 0.000000 0.000000 0.000000 0.000000 -0.106060 0.075096 -1.426926 -0.000000 0.000000 0.000000 -1.816368 9.348325 2.061859 0.000000 0.000000 0.000000 -0.106060 0.075096 -1.426926 -0.000000 0.000000 0.000000 -0.000000 0.000000 0.000000 0.000000 0.000000 0.000000
41.105351 68.616027 261.984044 0.147713 -0.077866 1.438028 -0.145713 0.081548 -1.437824 -0.000000 0.000000 0.000000 -0.000000 0.000000 0.000000 0.000000 0.000000 0.000000 -0.000000 0.000000 0.000000 -0.000000 0.000000 0.000000 -1.449889 5.275490 -0.687334 1.355446 -7.928045 0.045190 0.000000 0.000000 0.000000 0.000000 0.000000 0.000000 1.319580 -0.011571 0.270786 -1.319511 0.017804 -0.270448 66.105446 -33.927486 -78.884928 -50.809765 -57.349182 71.466780 0.000000 0.000000 0.000000 0.000000 0.000000 0.000000 -0.145713 0.081548 -1.437824 -0.000000 0.000000 0.000000 -2.112823 12.169597 2.296999 0.000000 0.000000 0.000000 -0.145713 0.081548 -1.437824 -0.000000 0.000000 0.000000 -0.000000 0.000000 0.000000 0.000000 0.000000 0.000000
41.097818 68.615003 261.980706 0.189454 -0.073941 1.461216 -0.187507 0.078747 -1.460964 -0.000000 0.000000 0.000000 -0.000000 0.000000 0.000000 0.000000 0.000000 0.000000 -0.000000 0.000000 0.000000 0.685935 -0.376646 0.263682 -2.145268 6.346162 -0.971789 1.588786 -9.099779 -0.078147 0.000000 0.000000 0.000000 0.000000 0.000000 0.000000 1.319975 -0.079596 0.253261 -0.697652 -0.389726 -0.038158 54.712307 -45.239426 -88.576159 -49.660877 -53.407950 85.817144 0.000000 0.000000 0.000000 0.000000 0.000000 0.000000 -0.187507 0.078747 -1.460964 -0.000000 0.000000 0.000000 -2.250502 14.796901 2.323738 0.000000 0.000000 0.000000 -0.187507 0.078747 -1.460964 -0.000000 0.000000 0.000000 -0.000000 0.000000 0.000000 0.000000 0.000000 0.000000
